<?xml version="1.0" standalone="no"?>
<!DOCTYPE svg PUBLIC "-//W3C//DTD SVG 20010904//EN"
 "http://www.w3.org/TR/2001/REC-SVG-20010904/DTD/svg10.dtd">
<svg version="1.0" xmlns="http://www.w3.org/2000/svg"
 width="576.000000pt" height="576.000000pt" viewBox="0 0 576.000000 576.000000"
 preserveAspectRatio="xMidYMid meet">
<metadata>
Created by potrace 1.14, written by Peter Selinger 2001-2017
</metadata>
<g transform="translate(0.000000,576.000000) scale(0.100000,-0.100000)"
fill="#000000" stroke="none">
<path d="M0 2880 l0 -2880 2880 0 2880 0 0 2880 0 2880 -2880 0 -2880 0 0
-2880z m1671 2234 c34 -129 54 -215 74 -319 9 -44 21 -105 27 -135 15 -79 26
-149 43 -280 8 -63 22 -144 31 -180 19 -79 33 -202 74 -660 5 -52 14 -147 20
-210 6 -63 12 -160 14 -215 4 -130 6 -135 65 -132 46 2 46 2 43 -28 -2 -16 -7
-39 -12 -50 -17 -41 -40 -156 -40 -205 0 -55 15 -66 31 -22 6 15 17 40 25 56
8 16 14 33 14 37 0 4 13 36 29 71 16 35 40 88 54 118 14 32 35 60 48 67 31 15
97 28 131 24 14 -1 29 3 33 8 3 6 19 11 35 11 27 0 28 -1 24 -42 -3 -24 -9
-59 -14 -78 -5 -19 -11 -73 -14 -120 -2 -47 -2 -77 1 -67 2 9 8 17 11 17 4 0
13 15 21 33 7 17 28 64 46 102 51 109 65 142 65 152 0 32 72 57 195 68 39 3
82 9 97 11 24 5 41 -7 135 -97 60 -57 110 -107 112 -112 2 -5 -2 -21 -9 -35
-7 -15 -16 -36 -20 -47 -4 -11 -12 -32 -18 -46 -21 -54 -25 -181 -8 -269 24
-124 34 -155 85 -255 37 -74 62 -107 141 -185 67 -67 113 -104 155 -124 33
-15 67 -32 76 -36 9 -5 53 -14 98 -20 102 -15 203 -2 281 37 60 30 141 104
185 171 22 34 30 40 42 30 8 -6 13 -17 11 -24 -3 -14 -78 -100 -161 -185 -46
-48 -66 -86 -29 -58 80 63 204 191 214 221 3 8 14 5 36 -7 18 -11 32 -22 32
-25 0 -4 -29 -53 -64 -110 -119 -190 -244 -319 -426 -438 -47 -30 -96 -63
-110 -72 -113 -74 -358 -130 -570 -130 -167 0 -251 15 -438 76 -77 25 -120 34
-172 34 -68 0 -81 -3 -170 -42 -53 -23 -110 -100 -110 -148 0 -19 -5 -30 -14
-30 -7 0 -19 -7 -26 -16 -11 -13 -5 -23 42 -72 71 -72 88 -113 88 -211 0 -103
-29 -181 -66 -181 -8 0 -14 -3 -14 -8 0 -4 -15 -13 -32 -20 -18 -7 -41 -18
-52 -24 -13 -7 -26 -7 -42 1 -13 6 -35 16 -49 23 -112 52 -192 270 -139 377
19 38 87 91 118 92 21 0 21 0 -1 16 -13 8 -23 25 -23 37 0 25 -89 104 -124
110 -172 32 -155 32 -288 -11 -26 -8 -52 -12 -58 -8 -12 7 -14 142 -1 149 4 3
11 18 14 34 3 15 15 39 25 52 17 21 22 22 35 11 9 -7 17 -22 19 -33 4 -30 55
-56 109 -57 36 -1 50 4 69 24 15 16 35 25 54 25 17 0 39 7 49 14 17 13 17 22
8 103 -11 100 -30 190 -60 293 -31 106 -38 128 -53 161 -30 69 -30 72 7 97 33
21 35 25 35 80 0 31 -7 89 -15 127 -22 98 -31 241 -17 258 8 9 10 45 6 108 -3
52 -5 138 -4 192 1 71 -3 105 -13 120 -8 13 -17 62 -21 112 -4 50 -10 128 -15
175 -4 47 -13 155 -20 240 -7 85 -17 176 -22 202 -6 26 -10 89 -8 140 1 51 -4
165 -10 253 -31 402 -21 1029 15 992 2 -2 13 -39 25 -83z m-324 -1831 c-3 -10
-5 -4 -5 12 0 17 2 24 5 18 2 -7 2 -21 0 -30z m1974 -140 c-66 -28 -156 -99
-179 -139 -14 -25 -39 -11 -132 76 l-85 79 215 0 c200 -1 213 -2 181 -16z
m579 -103 c0 -20 -5 -30 -15 -30 -10 0 -15 10 -15 30 0 20 5 30 15 30 10 0 15
-10 15 -30z m110 1 c0 -14 -18 -23 -30 -16 -6 4 -8 11 -5 16 8 12 35 12 35 0z
m-7 -41 c15 0 16 -6 11 -42 -9 -60 -18 -65 -52 -29 -21 23 -28 39 -24 57 4 20
9 24 26 20 11 -3 29 -6 39 -6z m327 -163 c0 -7 -8 -22 -18 -33 -9 -10 -35 -41
-57 -69 -22 -27 -45 -55 -50 -61 -6 -6 -22 -33 -35 -60 -14 -27 -26 -51 -28
-54 -6 -9 -22 26 -32 73 -10 47 -9 50 17 70 15 12 59 50 98 84 67 60 105 78
105 50z m-232 -83 c-23 -23 -42 -8 -20 15 10 10 21 14 27 9 6 -5 3 -14 -7 -24z
m226 -185 c0 -90 -6 -136 -27 -219 -15 -58 -31 -114 -36 -125 -5 -11 -15 -35
-21 -53 -7 -18 -17 -35 -21 -38 -5 -3 -32 14 -59 37 -52 44 -61 70 -39 110 6
12 12 68 14 126 l3 104 60 62 c34 34 71 75 83 90 36 47 44 31 43 -94z m-1201
-1408 c42 -39 43 -39 107 -34 63 5 65 4 78 -23 15 -34 16 -84 2 -84 -6 0 -19
6 -30 13 -17 10 -22 9 -30 -3 -6 -10 -25 -15 -52 -15 -36 0 -44 -4 -55 -27
-10 -20 -27 -31 -68 -42 -93 -28 -139 -30 -169 -11 -24 16 -27 16 -52 0 -15
-10 -35 -14 -49 -11 -19 5 -27 -1 -43 -28 -21 -35 -65 -52 -81 -32 -8 10 -15
36 -28 98 -3 19 -1 29 8 32 17 4 85 22 137 36 20 5 62 15 92 22 30 7 58 16 61
21 4 5 3 25 -2 45 -9 43 2 62 40 62 14 0 33 5 41 10 27 18 50 10 93 -29z
m1012 -107 c6 -33 19 -73 29 -90 15 -21 20 -46 20 -96 0 -60 -3 -71 -30 -104
-54 -67 -136 -91 -211 -63 -38 14 -92 67 -109 108 -18 44 -18 75 2 118 14 29
15 41 5 76 -7 23 -14 50 -17 59 -8 28 32 40 160 48 67 4 126 6 131 5 6 -1 15
-28 20 -61z m-506 -382 c15 -5 14 -39 -1 -45 -9 -4 -5 -12 11 -25 21 -17 22
-22 11 -43 -7 -13 -23 -31 -35 -41 -12 -10 -25 -30 -28 -46 -8 -38 -45 -55
-86 -39 -27 10 -31 16 -31 49 0 20 -9 53 -21 73 -13 22 -18 42 -14 53 5 9 7
25 6 36 -4 28 16 36 92 36 l67 0 2 158 1 157 7 -160 c5 -104 11 -160 19 -163z
m-325 236 c7 -11 7 -26 0 -45 -18 -54 -104 -37 -104 21 0 12 6 28 12 34 18 18
79 11 92 -10z m-395 -82 c7 -8 11 -27 9 -43 -3 -27 -6 -28 -53 -28 -44 0 -50
3 -53 22 -6 38 15 63 52 63 19 0 39 -6 45 -14z m-324 -191 c0 -19 -7 -20 -95
-20 -91 0 -95 1 -98 23 -3 23 -3 23 95 20 90 -3 98 -5 98 -23z m11 -50 c3 -8
-1 -24 -10 -37 -9 -12 -16 -41 -16 -63 0 -48 -6 -57 -46 -74 -41 -16 -68 -1
-88 49 -8 19 -24 43 -35 52 -23 20 -28 57 -9 76 19 19 197 16 204 -3z m-404
-197 c-2 -24 3 -30 45 -49 54 -24 65 -36 57 -61 -3 -9 2 -20 10 -25 21 -12 9
-53 -15 -53 -10 0 -21 -4 -24 -10 -4 -6 -60 -10 -134 -10 -128 0 -128 0 -140
26 -10 22 -7 34 18 84 17 32 29 71 28 87 -2 25 2 29 38 34 22 4 58 6 80 5 37
-1 40 -3 37 -28z"/>
<path d="M2687 2562 c-39 -43 -8 -112 49 -112 32 0 67 47 59 79 -12 49 -76 68
-108 33z"/>
<path d="M2112 1660 c2 -33 9 -65 15 -71 6 -6 36 -12 66 -13 30 -1 62 -7 70
-15 9 -7 23 -11 32 -9 10 2 -15 29 -74 78 -50 41 -91 78 -91 83 0 4 -5 7 -11
7 -8 0 -10 -20 -7 -60z"/>
<path d="M3188 1623 c7 -3 16 -2 19 1 4 3 -2 6 -13 5 -11 0 -14 -3 -6 -6z"/>
<path d="M2925 1610 c-4 -6 5 -10 20 -10 15 0 24 4 20 10 -3 6 -12 10 -20 10
-8 0 -17 -4 -20 -10z"/>
<path d="M3125 1610 c-4 -6 5 -10 19 -10 14 0 26 5 26 10 0 6 -9 10 -19 10
-11 0 -23 -4 -26 -10z"/>
<path d="M3024 1589 c12 -8 25 -8 40 -1 18 9 16 11 -19 11 -33 0 -37 -1 -21
-10z"/>
<path d="M1994 1285 c-16 -24 -16 -27 1 -45 10 -11 26 -20 36 -20 21 0 49 26
49 45 0 20 -28 45 -50 45 -11 0 -27 -11 -36 -25z"/>
<path d="M3474 594 c-8 -3 -6 -15 5 -37 14 -29 20 -33 57 -32 71 0 106 56 43
69 -35 7 -88 7 -105 0z"/>
<path d="M2422 568 c-30 -30 4 -61 69 -64 42 -2 49 1 49 16 0 11 5 22 10 25 6
3 10 13 10 21 0 18 -120 20 -138 2z"/>
<path d="M2075 310 c-3 -5 -1 -10 4 -10 6 0 11 5 11 10 0 6 -2 10 -4 10 -3 0
-8 -4 -11 -10z"/>
<path d="M2226 265 c-4 -11 1 -15 19 -15 28 0 33 15 9 24 -21 8 -21 8 -28 -9z"/>
</g>
</svg>
